<svg viewBox="0 0 32 32" fill="none" xmlns="http://www.w3.org/2000/svg">
<path d="M13.1978 11.4095L3.79147 5.80615L1.33337 10.1943L8.31438 14.3462L13.1978 11.4095Z" fill="#ECC100"/>
<path d="M23.6856 14.3462L30.6666 10.1943L28.2085 5.80615L18.7694 11.4095L23.6856 14.3462Z" fill="#ECC100"/>
<path d="M15.9835 9.75527L18.4416 8.3038V0H13.5254V8.3038L15.9835 9.75527Z" fill="#ECC100"/>
<path d="M30.6667 21.806L18.4418 14.5486L15.9837 13.0972L1.33337 21.806L3.79147 26.1942L11.1002 21.8398C11.3297 21.7048 11.5918 21.6035 11.8868 21.6035C12.8045 21.6035 13.5256 22.3461 13.5256 23.2913V32.0001H18.4418V23.2913C18.4418 22.3461 19.1628 21.6035 20.0805 21.6035C20.3755 21.6035 20.6377 21.7048 20.8671 21.8398L28.2086 26.1605L30.6667 21.806Z" fill="#ECC100"/>
</svg>
